<svg width="18" height="18" viewBox="0 0 18 18" fill="none" xmlns="http://www.w3.org/2000/svg">
<g clip-path="url(#clip0_1_325)">
<path d="M5.22 10.44C8.103 10.44 10.44 8.103 10.44 5.22C10.44 2.337 8.103 0 5.22 0C2.337 0 0 2.337 0 5.22C0 8.103 2.337 10.44 5.22 10.44Z" fill="#28A8EA"/>
<path d="M12.7799 17.9999C15.6629 17.9999 17.9999 15.6629 17.9999 12.7799C17.9999 9.89694 15.6629 7.55994 12.7799 7.55994C9.89688 7.55994 7.55988 9.89694 7.55988 12.7799C7.55988 15.6629 9.89688 17.9999 12.7799 17.9999Z" fill="#28A8EA"/>
<path d="M9.00011 17.64C13.772 17.64 17.6401 13.7719 17.6401 8.99999C17.6401 4.22811 13.772 0.359985 9.00011 0.359985C4.22823 0.359985 0.360107 4.22811 0.360107 8.99999C0.360107 13.7719 4.22823 17.64 9.00011 17.64Z" fill="#28A8EA"/>
<path fill-rule="evenodd" clip-rule="evenodd" d="M6.75934 8.83609C6.42151 8.61353 6.13967 8.31592 5.93584 7.96646C5.73892 7.59759 5.64172 7.18369 5.65384 6.76572C5.63884 6.23517 5.81988 5.7177 6.16234 5.31222C6.5181 4.90509 6.97536 4.59947 7.48759 4.42647C8.04491 4.22975 8.63209 4.13104 9.22309 4.13472C9.60972 4.13097 9.99597 4.16059 10.3777 4.22322C10.6507 4.26522 10.9188 4.33459 11.1783 4.42984C11.4164 4.51054 11.6313 4.64785 11.8046 4.82997C11.9325 4.97997 12.0015 5.17122 11.9985 5.36809C12.0031 5.47039 11.9875 5.5726 11.9525 5.66887C11.9176 5.76513 11.864 5.85356 11.7948 5.92909C11.7295 5.99872 11.6501 6.05372 11.5619 6.0905C11.4738 6.12727 11.3788 6.14498 11.2833 6.14246C11.1518 6.14146 11.022 6.11231 10.9027 6.05697C10.6091 5.92572 10.3065 5.81509 9.99709 5.72584C9.71238 5.6508 9.41888 5.61435 9.12447 5.61747C8.74107 5.60331 8.36175 5.70019 8.03209 5.89647C7.89289 5.98104 7.77897 6.10147 7.70225 6.24515C7.62552 6.38883 7.58882 6.55049 7.59597 6.71322C7.59385 6.92671 7.67495 7.13263 7.82209 7.28734C7.9971 7.46888 8.20389 7.61682 8.43222 7.72384C8.68834 7.85059 9.06972 8.01897 9.57709 8.22896C9.63334 8.24659 9.68847 8.26871 9.74134 8.29459C10.2366 8.49033 10.7113 8.73425 11.1588 9.02284C11.5122 9.25341 11.81 9.55936 12.0311 9.91872C12.2488 10.2961 12.3578 10.7263 12.3461 11.1618C12.3644 11.6955 12.2115 12.221 11.9096 12.6615C11.6024 13.0783 11.1774 13.3936 10.6893 13.5667C10.1013 13.7767 9.47997 13.878 8.85559 13.8656C7.99759 13.8956 7.14372 13.7343 6.35584 13.3931C6.15415 13.3034 5.97732 13.1659 5.84059 12.9926C5.72736 12.834 5.66867 12.6429 5.67334 12.4481C5.66763 12.3452 5.68433 12.2424 5.72227 12.1466C5.76021 12.0509 5.81849 11.9645 5.89309 11.8935C6.04984 11.7566 6.25309 11.685 6.46084 11.6936C6.69217 11.6968 6.91937 11.7553 7.12347 11.8642C7.37697 11.991 7.57722 12.0862 7.72347 12.1496C7.89109 12.2197 8.06472 12.2745 8.24209 12.3135C8.46072 12.3615 8.68422 12.3847 8.90809 12.3825C9.30383 12.4106 9.69761 12.3055 10.0267 12.084C10.1499 11.9875 10.2483 11.8631 10.3139 11.7211C10.3795 11.5791 10.4104 11.4235 10.404 11.2672C10.4045 11.0452 10.32 10.8314 10.1677 10.6698C9.96671 10.4628 9.73152 10.2919 9.47247 10.1647C9.16609 10.0027 8.73522 9.80584 8.17984 9.57409C7.68288 9.37616 7.207 9.12893 6.75934 8.83609Z" fill="white"/>
<path opacity="0.1" fill-rule="evenodd" clip-rule="evenodd" d="M6.85076 0.26252C6.62243 0.186086 6.38897 0.125935 6.15214 0.0825195C4.73068 0.538776 3.43853 1.32749 2.38296 2.38319C1.3274 3.43889 0.538845 4.73112 0.0827637 6.15264C0.126264 6.38964 0.186264 6.62289 0.262764 6.85127C0.326514 7.05752 0.407139 7.25889 0.503889 7.45239C0.816551 5.72444 1.64942 4.13317 2.89107 2.89145C4.13273 1.64973 5.72395 0.816775 7.45189 0.504019C7.25844 0.40735 7.05739 0.326705 6.85076 0.262895V0.26252Z" fill="black"/>
<path opacity="0.1" fill-rule="evenodd" clip-rule="evenodd" d="M6.85108 0.262573C5.2565 0.65573 3.79977 1.4774 2.63846 2.63871C1.47716 3.80001 0.655486 5.25674 0.262329 6.85132C0.326079 7.05757 0.406704 7.25895 0.503454 7.45245C0.81614 5.72444 1.64906 4.13313 2.89079 2.89141C4.13251 1.64968 5.72382 0.816759 7.45183 0.504073C7.2585 0.40742 7.05758 0.326775 6.85108 0.262948V0.262573Z" fill="black"/>
<path opacity="0.1" fill-rule="evenodd" clip-rule="evenodd" d="M17.7376 11.1491C17.6737 10.9425 17.5929 10.7414 17.4961 10.548C17.1834 12.2759 16.3505 13.8671 15.1089 15.1088C13.8672 16.3504 12.276 17.1833 10.5481 17.496C10.7416 17.5927 10.9426 17.6733 11.1492 17.7371C11.3776 17.8136 11.6108 17.8736 11.8475 17.9171C13.269 17.461 14.5613 16.6725 15.617 15.6169C16.6727 14.5614 17.4614 13.2692 17.9176 11.8477C17.8742 11.6109 17.814 11.3774 17.7376 11.1491Z" fill="black"/>
<path opacity="0.1" fill-rule="evenodd" clip-rule="evenodd" d="M17.4961 10.548C17.1834 12.2759 16.3505 13.8671 15.1089 15.1088C13.8672 16.3504 12.276 17.1833 10.5481 17.496C10.7416 17.5927 10.9426 17.6733 11.1492 17.7371C12.7436 17.3439 14.2002 16.5223 15.3614 15.3611C16.5226 14.2 17.3443 12.7435 17.7376 11.1491C17.6738 10.9425 17.5932 10.7414 17.4965 10.548H17.4961Z" fill="black"/>
</g>
<defs>
<clipPath id="clip0_1_325">
<rect width="18" height="18" fill="white"/>
</clipPath>
</defs>
</svg>
